<?xml version="1.0" encoding="utf-8"?>
<!-- Generator: Adobe Illustrator 17.1.0, SVG Export Plug-In . SVG Version: 6.00 Build 0)  -->
<!DOCTYPE svg PUBLIC "-//W3C//DTD SVG 1.1//EN" "http://www.w3.org/Graphics/SVG/1.1/DTD/svg11.dtd">
<svg version="1.1" id="Layer_1" xmlns="http://www.w3.org/2000/svg" xmlns:xlink="http://www.w3.org/1999/xlink" x="0px" y="0px"
	 viewBox="0 0 10 19" enable-background="new 0 0 10 19" xml:space="preserve" width='10' height='19'>
<g id="Forma_1_3_">
	<g>
		<path fill-rule="evenodd" clip-rule="evenodd" fill="#346CB8" d="M9.6,0L7.2,0C4.5,0,2.8,1.8,2.8,4.7v2.2H0.4C0.2,6.8,0,7,0,7.2
			v3.1c0,0.2,0.2,0.4,0.4,0.4h2.4v7.9C2.8,18.8,3,19,3.2,19h3.2c0.2,0,0.4-0.2,0.4-0.4v-7.9h2.8c0.2,0,0.4-0.2,0.4-0.4l0-3.1
			c0-0.1,0-0.2-0.1-0.3C9.7,6.9,9.6,6.8,9.5,6.8H6.7V5c0-0.9,0.2-1.3,1.3-1.3l1.6,0c0.2,0,0.4-0.2,0.4-0.4V0.4C10,0.2,9.9,0,9.6,0z"
			/>
	</g>
</g>
</svg>
