<?xml version="1.0" encoding="utf-8"?>
<!-- Generator: Adobe Illustrator 17.1.0, SVG Export Plug-In . SVG Version: 6.00 Build 0)  -->
<!DOCTYPE svg PUBLIC "-//W3C//DTD SVG 1.1//EN" "http://www.w3.org/Graphics/SVG/1.1/DTD/svg11.dtd">
<svg version="1.1" id="Layer_1" xmlns="http://www.w3.org/2000/svg" xmlns:xlink="http://www.w3.org/1999/xlink" x="0px" y="0px"
	 viewBox="0 0 9 17" enable-background="new 0 0 9 17" xml:space="preserve" width='9' height='17'>
<g id="Forma_1_копия_18_1_">
	<g>
		<path fill-rule="evenodd" clip-rule="evenodd" fill="#fff" d="M8.7,0L6.5,0c-2.4,0-4,1.6-4,4.2v1.9H0.3C0.2,6.1,0,6.3,0,6.5
			v2.8c0,0.2,0.2,0.3,0.3,0.3h2.2v7c0,0.2,0.2,0.3,0.3,0.3h2.8C5.9,17,6,16.8,6,16.6v-7h2.5c0.2,0,0.3-0.2,0.3-0.3l0-2.8
			c0-0.1,0-0.2-0.1-0.2C8.8,6.2,8.7,6.1,8.6,6.1H6V4.5c0-0.8,0.2-1.2,1.2-1.2l1.5,0C8.9,3.3,9,3.1,9,3V0.4C9,0.2,8.9,0,8.7,0z"/>
	</g>
</g>
</svg>
