<?xml version="1.0" encoding="utf-8"?>
<!-- Generator: Adobe Illustrator 17.1.0, SVG Export Plug-In . SVG Version: 6.00 Build 0)  -->
<!DOCTYPE svg PUBLIC "-//W3C//DTD SVG 1.1//EN" "http://www.w3.org/Graphics/SVG/1.1/DTD/svg11.dtd">
<svg version="1.1" id="Layer_1" xmlns="http://www.w3.org/2000/svg" xmlns:xlink="http://www.w3.org/1999/xlink" x="0px" y="0px"
	 viewBox="0 0 170.5 35.7" enable-background="new 0 0 170.5 35.7" xml:space="preserve" width='170' height='36'>
<g id="Anhor_uz">
	<g>
		<path fill-rule="evenodd" clip-rule="evenodd" fill="#007134" d="M0,22.7h4.8l1.4-3h10.8l1.5,3h5.1L11.8,0L0,22.7z M8.2,15.5
			l3.4-7l3.4,7H8.2z M41.5,13.3L25.6,0v22.8h4.6V9.9l15.9,13.2V0.4h-4.6V13.3z M65.3,8.8H55V0.4h-4.6v22.3H55V13h10.3v9.8h4.6V0.4
			h-4.6V8.8z M84.8,0c-6.4,0-11.5,5.2-11.5,11.5c0,6.4,5.2,11.6,11.6,11.6c6.4,0,11.5-5.2,11.5-11.6C96.4,5.2,91.2,0,84.8,0z
			 M84.8,18.7c-3.8,0-6.8-3.1-6.8-7.1c0-3.9,3-7.1,6.8-7.1c3.8,0,6.8,3.2,6.8,7.1C91.6,15.5,88.6,18.7,84.8,18.7z M116.8,9.2
			c0-4.9-4-8.8-9.3-8.8h-7.8v22.3h4.6v-3.9h2.3l3.7,3.9h6.2l-4.8-5.2C114.8,16.1,116.8,13.2,116.8,9.2z M106.9,14.7h-2.5V4.6h2.8
			c3.2,0,4.9,2.2,4.9,4.9C112.1,12.7,110.2,14.7,106.9,14.7z M145,13.2c0,3.4-1.5,5.5-4.9,5.5c-3.3,0-5-2-5-5.5V0.4h-4.6v12
			c0,6.2,3.1,10.7,9.7,10.7c6,0,9.6-3.8,9.6-10.3V0.4H145V13.2z M158.4,18.5l11.7-18.1h-18.3v4.2h10.4l-11.6,18.1h19.9v-4.2H158.4z"
			/>
	</g>
</g>
<g id="Прямоугольник_4">
	<g>
		
			<rect x="120.5" y="16.7" transform="matrix(0.7072 -0.707 0.707 0.7072 22.4664 92.5748)" fill-rule="evenodd" clip-rule="evenodd" fill="#70D643" width="5" height="5"/>
	</g>
</g>
<g id="Фигура_5_копия">
	<g>
		<polygon fill-rule="evenodd" clip-rule="evenodd" fill="#70D643" points="6,30.7 0.5,35.7 32,35.7 37.5,30.7 		"/>
	</g>
</g>
<g id="Фигура_5_копия_2">
	<g>
		<polygon fill-rule="evenodd" clip-rule="evenodd" fill="#047235" points="37,30.7 31.5,35.7 63,35.7 68.5,30.7 		"/>
	</g>
</g>
</svg>
