<?xml version="1.0" encoding="utf-8"?>
<!-- Generator: Adobe Illustrator 17.1.0, SVG Export Plug-In . SVG Version: 6.00 Build 0)  -->
<!DOCTYPE svg PUBLIC "-//W3C//DTD SVG 1.1//EN" "http://www.w3.org/Graphics/SVG/1.1/DTD/svg11.dtd">
<svg version="1.1" id="Layer_1" xmlns="http://www.w3.org/2000/svg" xmlns:xlink="http://www.w3.org/1999/xlink" x="0px" y="0px"
	 viewBox="0 0 17 17" enable-background="new 0 0 17 17" xml:space="preserve" width='17' height='17'>
<g id="Forma_1_2_">
	<g>
		<path fill-rule="evenodd" clip-rule="evenodd" fill="#F47B39" d="M2.3,12.4c-0.6,0-1.2,0.2-1.6,0.7c-0.5,0.5-0.7,1-0.7,1.6
			c0,0.6,0.2,1.2,0.7,1.6c0.5,0.5,1,0.7,1.6,0.7s1.2-0.2,1.6-0.7c0.5-0.5,0.7-1,0.7-1.6c0-0.6-0.2-1.2-0.7-1.6
			C3.5,12.6,3,12.4,2.3,12.4z M7.7,9.4c-0.9-0.9-2-1.6-3.1-2.2c-1.2-0.5-2.4-0.9-3.7-1H0.8c-0.2,0-0.4,0.1-0.5,0.2
			C0.1,6.5,0,6.7,0,7v1.6C0,8.8,0.1,9,0.2,9.1c0.1,0.1,0.3,0.2,0.5,0.2c1.8,0.2,3.4,0.9,4.7,2.2c1.3,1.3,2,2.9,2.2,4.7
			c0,0.2,0.1,0.4,0.2,0.5C8,17,8.2,17,8.4,17H10c0.2,0,0.4-0.1,0.6-0.3c0.2-0.2,0.2-0.4,0.2-0.6c-0.1-1.3-0.4-2.5-1-3.7
			C9.3,11.3,8.6,10.3,7.7,9.4z M15.5,10.1c-0.9-1.9-2-3.6-3.5-5.1c-1.5-1.5-3.2-2.7-5.1-3.6C4.9,0.6,2.9,0.1,0.8,0h0
			C0.6,0,0.4,0.1,0.2,0.2C0.1,0.4,0,0.5,0,0.8v1.7C0,2.7,0.1,2.9,0.2,3c0.1,0.1,0.3,0.2,0.5,0.2c1.7,0.1,3.4,0.5,4.9,1.2
			c1.6,0.7,2.9,1.6,4.1,2.8c1.1,1.1,2.1,2.5,2.8,4.1c0.7,1.6,1.1,3.2,1.2,4.9c0,0.2,0.1,0.4,0.2,0.5c0.1,0.1,0.3,0.2,0.5,0.2h1.7
			c0.2,0,0.4-0.1,0.6-0.2c0.2-0.2,0.2-0.4,0.2-0.6C16.9,14.1,16.4,12.1,15.5,10.1z"/>
	</g>
</g>
</svg>
