<?xml version="1.0" encoding="utf-8"?>
<!-- Generator: Adobe Illustrator 17.1.0, SVG Export Plug-In . SVG Version: 6.00 Build 0)  -->
<!DOCTYPE svg PUBLIC "-//W3C//DTD SVG 1.1//EN" "http://www.w3.org/Graphics/SVG/1.1/DTD/svg11.dtd">
<svg version="1.1" id="Layer_1" xmlns="http://www.w3.org/2000/svg" xmlns:xlink="http://www.w3.org/1999/xlink" x="0px" y="0px"
	 viewBox="0 0 15 15" enable-background="new 0 0 15 15" xml:space="preserve" width='15' height='15'>
<g id="Forma_1_копия_18">
	<g>
		<path fill-rule="evenodd" clip-rule="evenodd" fill="#fff" d="M2,10.9c-0.6,0-1.1,0.2-1.4,0.6C0.2,11.9,0,12.4,0,13
			c0,0.6,0.2,1.1,0.6,1.4C1,14.8,1.5,15,2,15c0.6,0,1-0.2,1.4-0.6C3.9,14,4.1,13.5,4.1,13c0-0.6-0.2-1.1-0.6-1.4
			C3.1,11.1,2.6,10.9,2,10.9z M6.7,8.2C5.9,7.4,5,6.8,4,6.3C3,5.8,1.9,5.5,0.7,5.5H0.7c-0.2,0-0.3,0.1-0.5,0.2C0.1,5.8,0,5.9,0,6.1
			v1.4C0,7.8,0.1,7.9,0.2,8c0.1,0.1,0.3,0.2,0.4,0.2c1.6,0.2,3,0.8,4.2,2c1.2,1.2,1.8,2.5,2,4.2c0,0.2,0.1,0.3,0.2,0.4
			C7.1,14.9,7.2,15,7.4,15h1.4c0.2,0,0.4-0.1,0.5-0.2c0.1-0.1,0.2-0.3,0.2-0.5C9.4,13.1,9.2,12,8.7,11C8.2,10,7.6,9.1,6.7,8.2z
			 M13.7,8.9c-0.8-1.7-1.8-3.2-3.1-4.5C9.3,3.1,7.7,2,6,1.3C4.4,0.5,2.6,0.1,0.7,0h0C0.5,0,0.3,0.1,0.2,0.2C0.1,0.3,0,0.5,0,0.7v1.5
			c0,0.2,0.1,0.3,0.2,0.5c0.1,0.1,0.3,0.2,0.5,0.2C2.2,3,3.6,3.3,5,4c1.4,0.6,2.6,1.5,3.6,2.5c1,1,1.8,2.2,2.5,3.6
			c0.6,1.4,1,2.8,1.1,4.4c0,0.2,0.1,0.3,0.2,0.5c0.1,0.1,0.3,0.2,0.5,0.2h1.5c0.2,0,0.4-0.1,0.5-0.2c0.1-0.1,0.2-0.3,0.2-0.5
			C14.9,12.4,14.5,10.6,13.7,8.9z"/>
	</g>
</g>
</svg>
