<?xml version="1.0" encoding="utf-8"?>
<!-- Generator: Adobe Illustrator 17.1.0, SVG Export Plug-In . SVG Version: 6.00 Build 0)  -->
<!DOCTYPE svg PUBLIC "-//W3C//DTD SVG 1.1//EN" "http://www.w3.org/Graphics/SVG/1.1/DTD/svg11.dtd">
<svg version="1.1" id="Layer_1" xmlns="http://www.w3.org/2000/svg" xmlns:xlink="http://www.w3.org/1999/xlink" x="0px" y="0px"
	 viewBox="0 0 15 10" enable-background="new 0 0 15 10" xml:space="preserve" width='15' height='10'>
<g id="Shape_1_4_">
	<g>
		<path fill-rule="evenodd" clip-rule="evenodd" fill="#507299" d="M14.4,8.1c-0.4-0.6-1-1.2-1.5-1.7c-0.4-0.5-0.5-0.8-0.1-1.4
			C13.2,4.3,13.6,3.7,14,3c0.4-0.6,0.7-1.2,0.9-1.9c0.1-0.5,0-0.7-0.4-0.7c-0.1,0-0.1,0-0.2,0l-2.4,0c-0.3,0-0.5,0.1-0.6,0.5
			C11.3,1.2,11.1,1.6,11,2c-0.4,0.9-0.8,1.8-1.4,2.5C9.4,4.7,9.3,4.9,9.1,4.8C8.8,4.7,8.7,4.2,8.7,4l0-3.2C8.7,0.3,8.6,0.1,8.2,0
			H5.7C5.4,0,5.2,0.2,5.1,0.4C5,0.5,4.9,0.6,5.1,0.7c0.4,0.1,0.6,0.4,0.7,0.9c0.1,0.8,0.1,1.6,0,2.3c0,0.2-0.1,0.5-0.1,0.7
			C5.6,4.9,5.4,5,5.2,4.8C5,4.6,4.8,4.3,4.6,4C4,3.1,3.6,2,3.2,0.9C3.1,0.5,2.9,0.4,2.6,0.3c-0.7,0-1.4,0-2.1,0
			C0,0.4-0.1,0.6,0.1,1.1c0.8,2,1.6,4,2.8,5.8c0.6,0.9,1.2,1.7,2.1,2.3c1,0.7,2,0.9,3.1,0.8c0.5,0,0.7-0.2,0.7-0.8
			C8.8,8.8,8.8,8.4,9,8c0.2-0.4,0.4-0.4,0.7-0.2c0.1,0.1,0.3,0.3,0.4,0.4C10.4,8.6,10.7,9,11,9.3c0.4,0.5,0.8,0.7,1.4,0.7l2.2,0
			c0.4,0,0.5-0.5,0.3-1C14.7,8.7,14.6,8.4,14.4,8.1z"/>
	</g>
</g>
</svg>
