<?xml version="1.0" encoding="utf-8"?>
<!-- Generator: Adobe Illustrator 17.1.0, SVG Export Plug-In . SVG Version: 6.00 Build 0)  -->
<!DOCTYPE svg PUBLIC "-//W3C//DTD SVG 1.1//EN" "http://www.w3.org/Graphics/SVG/1.1/DTD/svg11.dtd">
<svg version="1.1" id="Layer_1" xmlns="http://www.w3.org/2000/svg" xmlns:xlink="http://www.w3.org/1999/xlink" x="0px" y="0px"
	 viewBox="0 0 16 14" enable-background="new 0 0 16 14" xml:space="preserve" width='16' height='14'>
<g id="Shape_1_3_">
	<g>
		<path fill-rule="evenodd" clip-rule="evenodd" fill="#FFFFFF" d="M15.4,0L0.3,5.9c-0.4,0.1-0.4,0.7,0,0.8L4,8.1l1.4,4.6
			c0.1,0.3,0.5,0.4,0.7,0.2l2.1-1.7c0.2-0.2,0.5-0.2,0.7,0l3.7,2.7c0.3,0.2,0.6,0,0.7-0.3L16,0.5C16.1,0.2,15.8-0.1,15.4,0z
			 M12.5,3.1l-6,5.6C6.4,8.9,6.2,9.1,6.2,9.4L6,10.9c0,0.2-0.3,0.2-0.4,0L4.9,8.2c-0.1-0.3,0-0.6,0.3-0.8l7.2-4.5
			C12.5,2.8,12.7,3,12.5,3.1z"/>
	</g>
</g>
</svg>
