<?xml version="1.0" encoding="utf-8"?>
<!-- Generator: Adobe Illustrator 17.1.0, SVG Export Plug-In . SVG Version: 6.00 Build 0)  -->
<!DOCTYPE svg PUBLIC "-//W3C//DTD SVG 1.1//EN" "http://www.w3.org/Graphics/SVG/1.1/DTD/svg11.dtd">
<svg version="1.1" id="Layer_1" xmlns="http://www.w3.org/2000/svg" xmlns:xlink="http://www.w3.org/1999/xlink" x="0px" y="0px"
	 viewBox="0 0 20 18" enable-background="new 0 0 20 18" xml:space="preserve" width='20' height='18'>
<g id="Shape_1">
	<g>
		<path fill-rule="evenodd" clip-rule="evenodd" fill="#409EDC" d="M19.3,0L0.3,7.6c-0.5,0.2-0.5,0.9,0,1.1L5,10.4l1.8,5.9
			c0.1,0.4,0.6,0.5,0.9,0.3l2.6-2.2c0.3-0.2,0.7-0.2,0.9,0l4.6,3.5c0.3,0.2,0.8,0.1,0.9-0.3L20,0.7C20.1,0.2,19.7-0.1,19.3,0z
			 M15.7,4l-7.4,7.1c-0.3,0.3-0.4,0.6-0.5,1L7.5,14c0,0.3-0.4,0.3-0.5,0l-1-3.5C6,10.1,6.1,9.7,6.5,9.5l9-5.7
			C15.6,3.6,15.8,3.9,15.7,4z"/>
	</g>
</g>
</svg>
