<?xml version="1.0" encoding="utf-8"?>
<!-- Generator: Adobe Illustrator 17.1.0, SVG Export Plug-In . SVG Version: 6.00 Build 0)  -->
<!DOCTYPE svg PUBLIC "-//W3C//DTD SVG 1.1//EN" "http://www.w3.org/Graphics/SVG/1.1/DTD/svg11.dtd">
<svg version="1.1" id="Layer_1" xmlns="http://www.w3.org/2000/svg" xmlns:xlink="http://www.w3.org/1999/xlink" x="0px" y="0px"
	 viewBox="0 0 8 14" enable-background="new 0 0 8 14" xml:space="preserve" width='8' height='14'>
<g id="Forma_1_копия_2">
	<g>
		<path fill-rule="evenodd" clip-rule="evenodd" fill="#FFFFFF" d="M7.7,0L5.8,0C3.6,0,2.2,1.4,2.2,3.4V5H0.3C0.1,5,0,5.2,0,5.3v2.3
			c0,0.2,0.1,0.3,0.3,0.3h1.9v5.8c0,0.2,0.1,0.3,0.3,0.3h2.5c0.2,0,0.3-0.1,0.3-0.3V7.9h2.3c0.2,0,0.3-0.1,0.3-0.3l0-2.3
			c0-0.1,0-0.1-0.1-0.2C7.8,5.1,7.7,5,7.6,5H5.4V3.7c0-0.6,0.2-1,1.1-1h1.3C7.9,2.7,8,2.6,8,2.4V0.3C8,0.1,7.9,0,7.7,0z"/>
	</g>
</g>
</svg>
