<?xml version="1.0" encoding="utf-8"?>
<!-- Generator: Adobe Illustrator 17.1.0, SVG Export Plug-In . SVG Version: 6.00 Build 0)  -->
<!DOCTYPE svg PUBLIC "-//W3C//DTD SVG 1.1//EN" "http://www.w3.org/Graphics/SVG/1.1/DTD/svg11.dtd">
<svg version="1.1" id="Layer_1" xmlns="http://www.w3.org/2000/svg" xmlns:xlink="http://www.w3.org/1999/xlink" x="0px" y="0px"
	 viewBox="0 0 10 16" enable-background="new 0 0 10 16" xml:space="preserve" width='10' height='16'>
<g id="Forma_1_4_">
	<g>
		<path fill-rule="evenodd" clip-rule="evenodd" fill="#EE8208" d="M9.8,9.7c0.3-0.3,0.3-0.7,0.1-1.2C9.6,8.1,9.2,8,8.7,8.1
			C8.5,8.1,8.3,8.2,8.1,8.4C6.2,9.6,3.7,9.5,1.8,8.3C1.7,8.3,1.6,8.2,1.5,8.2C1,7.9,0.5,8,0.2,8.4c-0.3,0.5-0.3,0.9,0.1,1.3
			c0.1,0.1,0.2,0.2,0.4,0.3c1,0.7,2.2,1.1,3.5,1.2C4.1,11.3,4,11.4,4,11.5c-0.9,0.9-1.9,1.8-2.8,2.7c-0.2,0.2-0.3,0.4-0.4,0.7
			c0,0.4,0.2,0.8,0.7,1c0.4,0.2,0.8,0.1,1.1-0.2C3.3,15,4,14.3,4.8,13.6c0.2-0.2,0.3-0.2,0.5,0c0.7,0.7,1.4,1.4,2.2,2.1
			C7.6,15.8,7.8,16,8.1,16c0.4,0,0.9-0.2,1.1-0.6C9.4,15,9.3,14.6,9,14.3c-1-0.9-1.9-1.9-2.9-2.8C6,11.4,6,11.4,5.9,11.2
			c0.7-0.1,1.4-0.2,2.1-0.4C8.6,10.5,9.2,10.2,9.8,9.7z M5,8.1c2.3,0,4.2-1.8,4.2-4C9.2,1.8,7.4,0,5,0C2.7,0,0.8,1.8,0.8,4
			C0.8,6.2,2.7,8.1,5,8.1z M5,2c1.1,0,2.1,0.9,2.1,2c0,1.1-0.9,2-2.1,2C3.9,6,2.9,5.1,2.9,4C2.9,2.9,3.9,2,5,2z"/>
	</g>
</g>
</svg>
